<mxfile host="app.diagrams.net" modified="2023-05-12T21:14:00.202Z" agent="Mozilla/5.0 (Windows NT 10.0; Win64; x64) AppleWebKit/537.36 (KHTML, like Gecko) Chrome/113.0.0.0 Safari/537.36" etag="ygBYgM2OnY5nrm_QkWoF" version="21.2.1" type="device">
  <diagram name="Pagina-1" id="XU3qZaKpHrffcBqZ7gna">
    <mxGraphModel dx="875" dy="1647" grid="1" gridSize="10" guides="1" tooltips="1" connect="1" arrows="1" fold="1" page="1" pageScale="1" pageWidth="827" pageHeight="1169" math="0" shadow="0">
      <root>
        <mxCell id="0" />
        <mxCell id="1" parent="0" />
        <mxCell id="yCoRCrYcr9WR2kOmPFQ8-5" value="" style="rounded=0;whiteSpace=wrap;html=1;" vertex="1" parent="1">
          <mxGeometry x="30" y="70" width="750" height="410" as="geometry" />
        </mxCell>
        <mxCell id="yCoRCrYcr9WR2kOmPFQ8-6" value="student" style="text;html=1;strokeColor=none;fillColor=none;align=center;verticalAlign=middle;whiteSpace=wrap;rounded=0;" vertex="1" parent="1">
          <mxGeometry x="630" y="80" width="60" height="30" as="geometry" />
        </mxCell>
        <mxCell id="yCoRCrYcr9WR2kOmPFQ8-7" value="Logout" style="rounded=0;whiteSpace=wrap;html=1;" vertex="1" parent="1">
          <mxGeometry x="710" y="85" width="60" height="20" as="geometry" />
        </mxCell>
        <mxCell id="yCoRCrYcr9WR2kOmPFQ8-23" value="" style="ellipse;whiteSpace=wrap;html=1;" vertex="1" parent="1">
          <mxGeometry x="30" y="380" width="90" height="100" as="geometry" />
        </mxCell>
        <mxCell id="yCoRCrYcr9WR2kOmPFQ8-24" value="" style="rounded=0;whiteSpace=wrap;html=1;fillColor=#fff2cc;strokeColor=#d6b656;" vertex="1" parent="1">
          <mxGeometry x="50" y="170" width="340" height="60" as="geometry" />
        </mxCell>
        <mxCell id="yCoRCrYcr9WR2kOmPFQ8-25" value="" style="rounded=0;whiteSpace=wrap;html=1;fillColor=#d5e8d4;strokeColor=#82b366;" vertex="1" parent="1">
          <mxGeometry x="50" y="230" width="340" height="60" as="geometry" />
        </mxCell>
        <mxCell id="yCoRCrYcr9WR2kOmPFQ8-26" value="" style="rounded=0;whiteSpace=wrap;html=1;fillColor=#d5e8d4;strokeColor=#82b366;" vertex="1" parent="1">
          <mxGeometry x="50" y="290" width="340" height="60" as="geometry" />
        </mxCell>
        <mxCell id="yCoRCrYcr9WR2kOmPFQ8-27" value="" style="rounded=0;whiteSpace=wrap;html=1;fillColor=#008a00;strokeColor=#005700;fontColor=#ffffff;" vertex="1" parent="1">
          <mxGeometry x="50" y="350" width="340" height="60" as="geometry" />
        </mxCell>
        <mxCell id="yCoRCrYcr9WR2kOmPFQ8-28" value="" style="rounded=0;whiteSpace=wrap;html=1;fillColor=#f8cecc;strokeColor=#b85450;" vertex="1" parent="1">
          <mxGeometry x="50" y="410" width="340" height="60" as="geometry" />
        </mxCell>
        <mxCell id="yCoRCrYcr9WR2kOmPFQ8-29" value="" style="rounded=0;whiteSpace=wrap;html=1;" vertex="1" parent="1">
          <mxGeometry x="450" y="170" width="310" height="290" as="geometry" />
        </mxCell>
        <mxCell id="yCoRCrYcr9WR2kOmPFQ8-30" value="Titlu tema" style="text;html=1;strokeColor=none;fillColor=none;align=center;verticalAlign=middle;whiteSpace=wrap;rounded=0;" vertex="1" parent="1">
          <mxGeometry x="60" y="185" width="60" height="30" as="geometry" />
        </mxCell>
        <mxCell id="yCoRCrYcr9WR2kOmPFQ8-31" value="Termen limita:&lt;br&gt;26.05.2023" style="text;html=1;strokeColor=none;fillColor=none;align=center;verticalAlign=middle;whiteSpace=wrap;rounded=0;" vertex="1" parent="1">
          <mxGeometry x="290" y="180" width="90" height="10" as="geometry" />
        </mxCell>
        <mxCell id="yCoRCrYcr9WR2kOmPFQ8-32" value="Timp ramas:&lt;br&gt;1h 23min 30sec" style="text;html=1;strokeColor=none;fillColor=none;align=center;verticalAlign=middle;whiteSpace=wrap;rounded=0;" vertex="1" parent="1">
          <mxGeometry x="290" y="205" width="90" height="10" as="geometry" />
        </mxCell>
        <mxCell id="yCoRCrYcr9WR2kOmPFQ8-33" value="Titlu tema" style="text;html=1;strokeColor=none;fillColor=none;align=center;verticalAlign=middle;whiteSpace=wrap;rounded=0;" vertex="1" parent="1">
          <mxGeometry x="470" y="185" width="80" height="30" as="geometry" />
        </mxCell>
        <mxCell id="yCoRCrYcr9WR2kOmPFQ8-34" value="Deadline" style="text;html=1;strokeColor=none;fillColor=none;align=center;verticalAlign=middle;whiteSpace=wrap;rounded=0;" vertex="1" parent="1">
          <mxGeometry x="480" y="230" width="60" height="30" as="geometry" />
        </mxCell>
        <mxCell id="yCoRCrYcr9WR2kOmPFQ8-35" value="Status" style="text;html=1;strokeColor=none;fillColor=none;align=center;verticalAlign=middle;whiteSpace=wrap;rounded=0;" vertex="1" parent="1">
          <mxGeometry x="670" y="185" width="80" height="30" as="geometry" />
        </mxCell>
        <mxCell id="yCoRCrYcr9WR2kOmPFQ8-36" value="Upload file" style="rounded=0;whiteSpace=wrap;html=1;" vertex="1" parent="1">
          <mxGeometry x="520" y="430" width="70" height="20" as="geometry" />
        </mxCell>
        <mxCell id="yCoRCrYcr9WR2kOmPFQ8-37" value="Send" style="rounded=0;whiteSpace=wrap;html=1;" vertex="1" parent="1">
          <mxGeometry x="640" y="430" width="70" height="20" as="geometry" />
        </mxCell>
        <mxCell id="yCoRCrYcr9WR2kOmPFQ8-38" value="Extensii" style="text;html=1;strokeColor=none;fillColor=none;align=center;verticalAlign=middle;whiteSpace=wrap;rounded=0;" vertex="1" parent="1">
          <mxGeometry x="480" y="280" width="60" height="30" as="geometry" />
        </mxCell>
        <mxCell id="yCoRCrYcr9WR2kOmPFQ8-39" value="Descriere" style="text;html=1;strokeColor=none;fillColor=none;align=center;verticalAlign=middle;whiteSpace=wrap;rounded=0;" vertex="1" parent="1">
          <mxGeometry x="480" y="330" width="60" height="30" as="geometry" />
        </mxCell>
        <mxCell id="yCoRCrYcr9WR2kOmPFQ8-40" value="Pending" style="text;html=1;strokeColor=none;fillColor=none;align=center;verticalAlign=middle;whiteSpace=wrap;rounded=0;" vertex="1" parent="1">
          <mxGeometry x="180" y="185" width="60" height="30" as="geometry" />
        </mxCell>
        <mxCell id="yCoRCrYcr9WR2kOmPFQ8-41" value="Expired" style="text;html=1;strokeColor=none;fillColor=none;align=center;verticalAlign=middle;whiteSpace=wrap;rounded=0;" vertex="1" parent="1">
          <mxGeometry x="180" y="430" width="60" height="25" as="geometry" />
        </mxCell>
        <mxCell id="yCoRCrYcr9WR2kOmPFQ8-42" value="Sent" style="text;html=1;strokeColor=none;fillColor=none;align=center;verticalAlign=middle;whiteSpace=wrap;rounded=0;" vertex="1" parent="1">
          <mxGeometry x="180" y="245" width="60" height="30" as="geometry" />
        </mxCell>
        <mxCell id="yCoRCrYcr9WR2kOmPFQ8-43" value="Sent" style="text;html=1;strokeColor=none;fillColor=none;align=center;verticalAlign=middle;whiteSpace=wrap;rounded=0;" vertex="1" parent="1">
          <mxGeometry x="180" y="305" width="60" height="30" as="geometry" />
        </mxCell>
        <mxCell id="yCoRCrYcr9WR2kOmPFQ8-44" value="Verified" style="text;html=1;strokeColor=none;fillColor=none;align=center;verticalAlign=middle;whiteSpace=wrap;rounded=0;" vertex="1" parent="1">
          <mxGeometry x="180" y="365" width="60" height="30" as="geometry" />
        </mxCell>
        <mxCell id="yCoRCrYcr9WR2kOmPFQ8-45" value="Titlu tema" style="text;html=1;strokeColor=none;fillColor=none;align=center;verticalAlign=middle;whiteSpace=wrap;rounded=0;" vertex="1" parent="1">
          <mxGeometry x="60" y="245" width="60" height="30" as="geometry" />
        </mxCell>
        <mxCell id="yCoRCrYcr9WR2kOmPFQ8-46" value="Titlu tema" style="text;html=1;strokeColor=none;fillColor=none;align=center;verticalAlign=middle;whiteSpace=wrap;rounded=0;" vertex="1" parent="1">
          <mxGeometry x="60" y="300" width="60" height="30" as="geometry" />
        </mxCell>
        <mxCell id="yCoRCrYcr9WR2kOmPFQ8-47" value="Titlu tema" style="text;html=1;strokeColor=none;fillColor=none;align=center;verticalAlign=middle;whiteSpace=wrap;rounded=0;" vertex="1" parent="1">
          <mxGeometry x="60" y="360" width="60" height="30" as="geometry" />
        </mxCell>
        <mxCell id="yCoRCrYcr9WR2kOmPFQ8-48" value="Waiting for mark..." style="text;html=1;strokeColor=none;fillColor=none;align=center;verticalAlign=middle;whiteSpace=wrap;rounded=0;" vertex="1" parent="1">
          <mxGeometry x="280" y="245" width="102.5" height="30" as="geometry" />
        </mxCell>
        <mxCell id="yCoRCrYcr9WR2kOmPFQ8-50" value="9/10" style="text;html=1;strokeColor=none;fillColor=none;align=center;verticalAlign=middle;whiteSpace=wrap;rounded=0;" vertex="1" parent="1">
          <mxGeometry x="285" y="365" width="95" height="30" as="geometry" />
        </mxCell>
        <mxCell id="yCoRCrYcr9WR2kOmPFQ8-51" value="Was due:12.05.2023" style="text;html=1;strokeColor=none;fillColor=none;align=center;verticalAlign=middle;whiteSpace=wrap;rounded=0;" vertex="1" parent="1">
          <mxGeometry x="262.5" y="410" width="132.5" height="30" as="geometry" />
        </mxCell>
        <mxCell id="yCoRCrYcr9WR2kOmPFQ8-52" value="Titlu tema" style="text;html=1;strokeColor=none;fillColor=none;align=center;verticalAlign=middle;whiteSpace=wrap;rounded=0;" vertex="1" parent="1">
          <mxGeometry x="60" y="425" width="60" height="30" as="geometry" />
        </mxCell>
        <mxCell id="yCoRCrYcr9WR2kOmPFQ8-53" value="Waiting for mark..." style="text;html=1;strokeColor=none;fillColor=none;align=center;verticalAlign=middle;whiteSpace=wrap;rounded=0;" vertex="1" parent="1">
          <mxGeometry x="277.5" y="300" width="102.5" height="30" as="geometry" />
        </mxCell>
        <mxCell id="yCoRCrYcr9WR2kOmPFQ8-54" value="0/10" style="text;html=1;strokeColor=none;fillColor=none;align=center;verticalAlign=middle;whiteSpace=wrap;rounded=0;" vertex="1" parent="1">
          <mxGeometry x="290" y="440" width="95" height="30" as="geometry" />
        </mxCell>
        <mxCell id="yCoRCrYcr9WR2kOmPFQ8-56" value="" style="rounded=0;whiteSpace=wrap;html=1;" vertex="1" parent="1">
          <mxGeometry x="50" y="560" width="750" height="410" as="geometry" />
        </mxCell>
        <mxCell id="yCoRCrYcr9WR2kOmPFQ8-57" value="username" style="text;html=1;strokeColor=none;fillColor=none;align=center;verticalAlign=middle;whiteSpace=wrap;rounded=0;" vertex="1" parent="1">
          <mxGeometry x="650" y="570" width="60" height="30" as="geometry" />
        </mxCell>
        <mxCell id="yCoRCrYcr9WR2kOmPFQ8-58" value="Logout" style="rounded=0;whiteSpace=wrap;html=1;" vertex="1" parent="1">
          <mxGeometry x="730" y="575" width="60" height="20" as="geometry" />
        </mxCell>
        <mxCell id="yCoRCrYcr9WR2kOmPFQ8-59" value="" style="ellipse;whiteSpace=wrap;html=1;" vertex="1" parent="1">
          <mxGeometry x="50" y="870" width="90" height="100" as="geometry" />
        </mxCell>
        <mxCell id="yCoRCrYcr9WR2kOmPFQ8-60" value="" style="rounded=0;whiteSpace=wrap;html=1;fillColor=#fff2cc;strokeColor=#d6b656;" vertex="1" parent="1">
          <mxGeometry x="70" y="660" width="340" height="60" as="geometry" />
        </mxCell>
        <mxCell id="yCoRCrYcr9WR2kOmPFQ8-61" value="" style="rounded=0;whiteSpace=wrap;html=1;fillColor=#d5e8d4;strokeColor=#82b366;" vertex="1" parent="1">
          <mxGeometry x="70" y="720" width="340" height="60" as="geometry" />
        </mxCell>
        <mxCell id="yCoRCrYcr9WR2kOmPFQ8-62" value="" style="rounded=0;whiteSpace=wrap;html=1;fillColor=#d5e8d4;strokeColor=#82b366;" vertex="1" parent="1">
          <mxGeometry x="70" y="780" width="340" height="60" as="geometry" />
        </mxCell>
        <mxCell id="yCoRCrYcr9WR2kOmPFQ8-63" value="" style="rounded=0;whiteSpace=wrap;html=1;fillColor=#008a00;strokeColor=#005700;fontColor=#ffffff;" vertex="1" parent="1">
          <mxGeometry x="70" y="840" width="340" height="60" as="geometry" />
        </mxCell>
        <mxCell id="yCoRCrYcr9WR2kOmPFQ8-64" value="" style="rounded=0;whiteSpace=wrap;html=1;fillColor=#f8cecc;strokeColor=#b85450;" vertex="1" parent="1">
          <mxGeometry x="70" y="900" width="340" height="60" as="geometry" />
        </mxCell>
        <mxCell id="yCoRCrYcr9WR2kOmPFQ8-65" value="" style="rounded=0;whiteSpace=wrap;html=1;" vertex="1" parent="1">
          <mxGeometry x="470" y="660" width="310" height="290" as="geometry" />
        </mxCell>
        <mxCell id="yCoRCrYcr9WR2kOmPFQ8-66" value="Titlu tema" style="text;html=1;strokeColor=none;fillColor=none;align=center;verticalAlign=middle;whiteSpace=wrap;rounded=0;" vertex="1" parent="1">
          <mxGeometry x="80" y="675" width="60" height="30" as="geometry" />
        </mxCell>
        <mxCell id="yCoRCrYcr9WR2kOmPFQ8-67" value="Termen limita:&lt;br&gt;26.05.2023" style="text;html=1;strokeColor=none;fillColor=none;align=center;verticalAlign=middle;whiteSpace=wrap;rounded=0;" vertex="1" parent="1">
          <mxGeometry x="310" y="670" width="90" height="10" as="geometry" />
        </mxCell>
        <mxCell id="yCoRCrYcr9WR2kOmPFQ8-68" value="Timp ramas:&lt;br&gt;1h 23min 30sec" style="text;html=1;strokeColor=none;fillColor=none;align=center;verticalAlign=middle;whiteSpace=wrap;rounded=0;" vertex="1" parent="1">
          <mxGeometry x="310" y="695" width="90" height="10" as="geometry" />
        </mxCell>
        <mxCell id="yCoRCrYcr9WR2kOmPFQ8-76" value="Pending" style="text;html=1;strokeColor=none;fillColor=none;align=center;verticalAlign=middle;whiteSpace=wrap;rounded=0;" vertex="1" parent="1">
          <mxGeometry x="200" y="675" width="60" height="30" as="geometry" />
        </mxCell>
        <mxCell id="yCoRCrYcr9WR2kOmPFQ8-77" value="Expired" style="text;html=1;strokeColor=none;fillColor=none;align=center;verticalAlign=middle;whiteSpace=wrap;rounded=0;" vertex="1" parent="1">
          <mxGeometry x="200" y="920" width="60" height="25" as="geometry" />
        </mxCell>
        <mxCell id="yCoRCrYcr9WR2kOmPFQ8-78" value="Sent" style="text;html=1;strokeColor=none;fillColor=none;align=center;verticalAlign=middle;whiteSpace=wrap;rounded=0;" vertex="1" parent="1">
          <mxGeometry x="200" y="735" width="60" height="30" as="geometry" />
        </mxCell>
        <mxCell id="yCoRCrYcr9WR2kOmPFQ8-79" value="Sent" style="text;html=1;strokeColor=none;fillColor=none;align=center;verticalAlign=middle;whiteSpace=wrap;rounded=0;" vertex="1" parent="1">
          <mxGeometry x="200" y="795" width="60" height="30" as="geometry" />
        </mxCell>
        <mxCell id="yCoRCrYcr9WR2kOmPFQ8-80" value="Verified" style="text;html=1;strokeColor=none;fillColor=none;align=center;verticalAlign=middle;whiteSpace=wrap;rounded=0;" vertex="1" parent="1">
          <mxGeometry x="200" y="855" width="60" height="30" as="geometry" />
        </mxCell>
        <mxCell id="yCoRCrYcr9WR2kOmPFQ8-81" value="Titlu tema" style="text;html=1;strokeColor=none;fillColor=none;align=center;verticalAlign=middle;whiteSpace=wrap;rounded=0;" vertex="1" parent="1">
          <mxGeometry x="80" y="735" width="60" height="30" as="geometry" />
        </mxCell>
        <mxCell id="yCoRCrYcr9WR2kOmPFQ8-82" value="Titlu tema" style="text;html=1;strokeColor=none;fillColor=none;align=center;verticalAlign=middle;whiteSpace=wrap;rounded=0;" vertex="1" parent="1">
          <mxGeometry x="80" y="790" width="60" height="30" as="geometry" />
        </mxCell>
        <mxCell id="yCoRCrYcr9WR2kOmPFQ8-83" value="Titlu tema" style="text;html=1;strokeColor=none;fillColor=none;align=center;verticalAlign=middle;whiteSpace=wrap;rounded=0;" vertex="1" parent="1">
          <mxGeometry x="80" y="850" width="60" height="30" as="geometry" />
        </mxCell>
        <mxCell id="yCoRCrYcr9WR2kOmPFQ8-84" value="Waiting for mark..." style="text;html=1;strokeColor=none;fillColor=none;align=center;verticalAlign=middle;whiteSpace=wrap;rounded=0;" vertex="1" parent="1">
          <mxGeometry x="300" y="735" width="102.5" height="30" as="geometry" />
        </mxCell>
        <mxCell id="yCoRCrYcr9WR2kOmPFQ8-85" value="9/10" style="text;html=1;strokeColor=none;fillColor=none;align=center;verticalAlign=middle;whiteSpace=wrap;rounded=0;" vertex="1" parent="1">
          <mxGeometry x="305" y="855" width="95" height="30" as="geometry" />
        </mxCell>
        <mxCell id="yCoRCrYcr9WR2kOmPFQ8-86" value="Was due:12.05.2023" style="text;html=1;strokeColor=none;fillColor=none;align=center;verticalAlign=middle;whiteSpace=wrap;rounded=0;" vertex="1" parent="1">
          <mxGeometry x="282.5" y="900" width="132.5" height="30" as="geometry" />
        </mxCell>
        <mxCell id="yCoRCrYcr9WR2kOmPFQ8-87" value="Titlu tema" style="text;html=1;strokeColor=none;fillColor=none;align=center;verticalAlign=middle;whiteSpace=wrap;rounded=0;" vertex="1" parent="1">
          <mxGeometry x="80" y="915" width="60" height="30" as="geometry" />
        </mxCell>
        <mxCell id="yCoRCrYcr9WR2kOmPFQ8-88" value="Waiting for mark..." style="text;html=1;strokeColor=none;fillColor=none;align=center;verticalAlign=middle;whiteSpace=wrap;rounded=0;" vertex="1" parent="1">
          <mxGeometry x="297.5" y="790" width="102.5" height="30" as="geometry" />
        </mxCell>
        <mxCell id="yCoRCrYcr9WR2kOmPFQ8-89" value="0/10" style="text;html=1;strokeColor=none;fillColor=none;align=center;verticalAlign=middle;whiteSpace=wrap;rounded=0;" vertex="1" parent="1">
          <mxGeometry x="310" y="930" width="95" height="30" as="geometry" />
        </mxCell>
        <mxCell id="yCoRCrYcr9WR2kOmPFQ8-90" value="Sent" style="text;html=1;strokeColor=none;fillColor=none;align=center;verticalAlign=middle;whiteSpace=wrap;rounded=0;" vertex="1" parent="1">
          <mxGeometry x="590" y="735" width="60" height="30" as="geometry" />
        </mxCell>
        <mxCell id="yCoRCrYcr9WR2kOmPFQ8-92" value="Waiting for review..." style="text;html=1;strokeColor=none;fillColor=none;align=center;verticalAlign=middle;whiteSpace=wrap;rounded=0;" vertex="1" parent="1">
          <mxGeometry x="535" y="820" width="150" height="30" as="geometry" />
        </mxCell>
        <mxCell id="yCoRCrYcr9WR2kOmPFQ8-93" value="" style="rounded=0;whiteSpace=wrap;html=1;" vertex="1" parent="1">
          <mxGeometry x="40" y="1070" width="750" height="410" as="geometry" />
        </mxCell>
        <mxCell id="yCoRCrYcr9WR2kOmPFQ8-94" value="username" style="text;html=1;strokeColor=none;fillColor=none;align=center;verticalAlign=middle;whiteSpace=wrap;rounded=0;" vertex="1" parent="1">
          <mxGeometry x="640" y="1080" width="60" height="30" as="geometry" />
        </mxCell>
        <mxCell id="yCoRCrYcr9WR2kOmPFQ8-95" value="Logout" style="rounded=0;whiteSpace=wrap;html=1;" vertex="1" parent="1">
          <mxGeometry x="720" y="1085" width="60" height="20" as="geometry" />
        </mxCell>
        <mxCell id="yCoRCrYcr9WR2kOmPFQ8-96" value="" style="ellipse;whiteSpace=wrap;html=1;" vertex="1" parent="1">
          <mxGeometry x="40" y="1380" width="90" height="100" as="geometry" />
        </mxCell>
        <mxCell id="yCoRCrYcr9WR2kOmPFQ8-97" value="" style="rounded=0;whiteSpace=wrap;html=1;fillColor=#fff2cc;strokeColor=#d6b656;" vertex="1" parent="1">
          <mxGeometry x="60" y="1170" width="340" height="60" as="geometry" />
        </mxCell>
        <mxCell id="yCoRCrYcr9WR2kOmPFQ8-98" value="" style="rounded=0;whiteSpace=wrap;html=1;fillColor=#d5e8d4;strokeColor=#82b366;" vertex="1" parent="1">
          <mxGeometry x="60" y="1230" width="340" height="60" as="geometry" />
        </mxCell>
        <mxCell id="yCoRCrYcr9WR2kOmPFQ8-99" value="" style="rounded=0;whiteSpace=wrap;html=1;fillColor=#d5e8d4;strokeColor=#82b366;" vertex="1" parent="1">
          <mxGeometry x="60" y="1290" width="340" height="60" as="geometry" />
        </mxCell>
        <mxCell id="yCoRCrYcr9WR2kOmPFQ8-100" value="" style="rounded=0;whiteSpace=wrap;html=1;fillColor=#008a00;strokeColor=#005700;fontColor=#ffffff;" vertex="1" parent="1">
          <mxGeometry x="60" y="1350" width="340" height="60" as="geometry" />
        </mxCell>
        <mxCell id="yCoRCrYcr9WR2kOmPFQ8-101" value="" style="rounded=0;whiteSpace=wrap;html=1;fillColor=#f8cecc;strokeColor=#b85450;" vertex="1" parent="1">
          <mxGeometry x="60" y="1410" width="340" height="60" as="geometry" />
        </mxCell>
        <mxCell id="yCoRCrYcr9WR2kOmPFQ8-102" value="" style="rounded=0;whiteSpace=wrap;html=1;" vertex="1" parent="1">
          <mxGeometry x="460" y="1170" width="310" height="290" as="geometry" />
        </mxCell>
        <mxCell id="yCoRCrYcr9WR2kOmPFQ8-103" value="Titlu tema" style="text;html=1;strokeColor=none;fillColor=none;align=center;verticalAlign=middle;whiteSpace=wrap;rounded=0;" vertex="1" parent="1">
          <mxGeometry x="70" y="1185" width="60" height="30" as="geometry" />
        </mxCell>
        <mxCell id="yCoRCrYcr9WR2kOmPFQ8-104" value="Termen limita:&lt;br&gt;26.05.2023" style="text;html=1;strokeColor=none;fillColor=none;align=center;verticalAlign=middle;whiteSpace=wrap;rounded=0;" vertex="1" parent="1">
          <mxGeometry x="300" y="1180" width="90" height="10" as="geometry" />
        </mxCell>
        <mxCell id="yCoRCrYcr9WR2kOmPFQ8-105" value="Timp ramas:&lt;br&gt;1h 23min 30sec" style="text;html=1;strokeColor=none;fillColor=none;align=center;verticalAlign=middle;whiteSpace=wrap;rounded=0;" vertex="1" parent="1">
          <mxGeometry x="300" y="1205" width="90" height="10" as="geometry" />
        </mxCell>
        <mxCell id="yCoRCrYcr9WR2kOmPFQ8-106" value="Pending" style="text;html=1;strokeColor=none;fillColor=none;align=center;verticalAlign=middle;whiteSpace=wrap;rounded=0;" vertex="1" parent="1">
          <mxGeometry x="190" y="1185" width="60" height="30" as="geometry" />
        </mxCell>
        <mxCell id="yCoRCrYcr9WR2kOmPFQ8-107" value="Expired" style="text;html=1;strokeColor=none;fillColor=none;align=center;verticalAlign=middle;whiteSpace=wrap;rounded=0;" vertex="1" parent="1">
          <mxGeometry x="190" y="1430" width="60" height="25" as="geometry" />
        </mxCell>
        <mxCell id="yCoRCrYcr9WR2kOmPFQ8-108" value="Sent" style="text;html=1;strokeColor=none;fillColor=none;align=center;verticalAlign=middle;whiteSpace=wrap;rounded=0;" vertex="1" parent="1">
          <mxGeometry x="190" y="1245" width="60" height="30" as="geometry" />
        </mxCell>
        <mxCell id="yCoRCrYcr9WR2kOmPFQ8-109" value="Sent" style="text;html=1;strokeColor=none;fillColor=none;align=center;verticalAlign=middle;whiteSpace=wrap;rounded=0;" vertex="1" parent="1">
          <mxGeometry x="190" y="1305" width="60" height="30" as="geometry" />
        </mxCell>
        <mxCell id="yCoRCrYcr9WR2kOmPFQ8-110" value="Verified" style="text;html=1;strokeColor=none;fillColor=none;align=center;verticalAlign=middle;whiteSpace=wrap;rounded=0;" vertex="1" parent="1">
          <mxGeometry x="190" y="1365" width="60" height="30" as="geometry" />
        </mxCell>
        <mxCell id="yCoRCrYcr9WR2kOmPFQ8-111" value="Titlu tema" style="text;html=1;strokeColor=none;fillColor=none;align=center;verticalAlign=middle;whiteSpace=wrap;rounded=0;" vertex="1" parent="1">
          <mxGeometry x="70" y="1245" width="60" height="30" as="geometry" />
        </mxCell>
        <mxCell id="yCoRCrYcr9WR2kOmPFQ8-112" value="Titlu tema" style="text;html=1;strokeColor=none;fillColor=none;align=center;verticalAlign=middle;whiteSpace=wrap;rounded=0;" vertex="1" parent="1">
          <mxGeometry x="70" y="1300" width="60" height="30" as="geometry" />
        </mxCell>
        <mxCell id="yCoRCrYcr9WR2kOmPFQ8-113" value="Titlu tema" style="text;html=1;strokeColor=none;fillColor=none;align=center;verticalAlign=middle;whiteSpace=wrap;rounded=0;" vertex="1" parent="1">
          <mxGeometry x="70" y="1360" width="60" height="30" as="geometry" />
        </mxCell>
        <mxCell id="yCoRCrYcr9WR2kOmPFQ8-114" value="Waiting for mark..." style="text;html=1;strokeColor=none;fillColor=none;align=center;verticalAlign=middle;whiteSpace=wrap;rounded=0;" vertex="1" parent="1">
          <mxGeometry x="290" y="1245" width="102.5" height="30" as="geometry" />
        </mxCell>
        <mxCell id="yCoRCrYcr9WR2kOmPFQ8-115" value="9/10" style="text;html=1;strokeColor=none;fillColor=none;align=center;verticalAlign=middle;whiteSpace=wrap;rounded=0;" vertex="1" parent="1">
          <mxGeometry x="295" y="1365" width="95" height="30" as="geometry" />
        </mxCell>
        <mxCell id="yCoRCrYcr9WR2kOmPFQ8-116" value="Was due:12.05.2023" style="text;html=1;strokeColor=none;fillColor=none;align=center;verticalAlign=middle;whiteSpace=wrap;rounded=0;" vertex="1" parent="1">
          <mxGeometry x="272.5" y="1410" width="132.5" height="30" as="geometry" />
        </mxCell>
        <mxCell id="yCoRCrYcr9WR2kOmPFQ8-117" value="Titlu tema" style="text;html=1;strokeColor=none;fillColor=none;align=center;verticalAlign=middle;whiteSpace=wrap;rounded=0;" vertex="1" parent="1">
          <mxGeometry x="70" y="1425" width="60" height="30" as="geometry" />
        </mxCell>
        <mxCell id="yCoRCrYcr9WR2kOmPFQ8-118" value="Waiting for mark..." style="text;html=1;strokeColor=none;fillColor=none;align=center;verticalAlign=middle;whiteSpace=wrap;rounded=0;" vertex="1" parent="1">
          <mxGeometry x="287.5" y="1300" width="102.5" height="30" as="geometry" />
        </mxCell>
        <mxCell id="yCoRCrYcr9WR2kOmPFQ8-119" value="0/10" style="text;html=1;strokeColor=none;fillColor=none;align=center;verticalAlign=middle;whiteSpace=wrap;rounded=0;" vertex="1" parent="1">
          <mxGeometry x="300" y="1440" width="95" height="30" as="geometry" />
        </mxCell>
        <mxCell id="yCoRCrYcr9WR2kOmPFQ8-120" value="9/10" style="text;html=1;strokeColor=none;fillColor=none;align=center;verticalAlign=middle;whiteSpace=wrap;rounded=0;" vertex="1" parent="1">
          <mxGeometry x="565" y="1205" width="110" height="45" as="geometry" />
        </mxCell>
        <mxCell id="yCoRCrYcr9WR2kOmPFQ8-121" value="Comments:" style="text;html=1;strokeColor=none;fillColor=none;align=center;verticalAlign=middle;whiteSpace=wrap;rounded=0;" vertex="1" parent="1">
          <mxGeometry x="480" y="1310" width="150" height="30" as="geometry" />
        </mxCell>
        <mxCell id="yCoRCrYcr9WR2kOmPFQ8-122" value="" style="rounded=0;whiteSpace=wrap;html=1;" vertex="1" parent="1">
          <mxGeometry x="510" y="1340" width="230" height="100" as="geometry" />
        </mxCell>
        <mxCell id="yCoRCrYcr9WR2kOmPFQ8-123" value="Reviewed by:" style="text;html=1;strokeColor=none;fillColor=none;align=center;verticalAlign=middle;whiteSpace=wrap;rounded=0;" vertex="1" parent="1">
          <mxGeometry x="490" y="1250" width="110" height="30" as="geometry" />
        </mxCell>
        <mxCell id="yCoRCrYcr9WR2kOmPFQ8-124" value="" style="rounded=0;whiteSpace=wrap;html=1;" vertex="1" parent="1">
          <mxGeometry x="50" y="1560" width="750" height="410" as="geometry" />
        </mxCell>
        <mxCell id="yCoRCrYcr9WR2kOmPFQ8-125" value="username" style="text;html=1;strokeColor=none;fillColor=none;align=center;verticalAlign=middle;whiteSpace=wrap;rounded=0;" vertex="1" parent="1">
          <mxGeometry x="650" y="1570" width="60" height="30" as="geometry" />
        </mxCell>
        <mxCell id="yCoRCrYcr9WR2kOmPFQ8-126" value="Logout" style="rounded=0;whiteSpace=wrap;html=1;" vertex="1" parent="1">
          <mxGeometry x="730" y="1575" width="60" height="20" as="geometry" />
        </mxCell>
        <mxCell id="yCoRCrYcr9WR2kOmPFQ8-127" value="" style="ellipse;whiteSpace=wrap;html=1;" vertex="1" parent="1">
          <mxGeometry x="50" y="1870" width="90" height="100" as="geometry" />
        </mxCell>
        <mxCell id="yCoRCrYcr9WR2kOmPFQ8-128" value="" style="rounded=0;whiteSpace=wrap;html=1;fillColor=#fff2cc;strokeColor=#d6b656;" vertex="1" parent="1">
          <mxGeometry x="70" y="1660" width="340" height="60" as="geometry" />
        </mxCell>
        <mxCell id="yCoRCrYcr9WR2kOmPFQ8-129" value="" style="rounded=0;whiteSpace=wrap;html=1;fillColor=#d5e8d4;strokeColor=#82b366;" vertex="1" parent="1">
          <mxGeometry x="70" y="1720" width="340" height="60" as="geometry" />
        </mxCell>
        <mxCell id="yCoRCrYcr9WR2kOmPFQ8-130" value="" style="rounded=0;whiteSpace=wrap;html=1;fillColor=#d5e8d4;strokeColor=#82b366;" vertex="1" parent="1">
          <mxGeometry x="70" y="1780" width="340" height="60" as="geometry" />
        </mxCell>
        <mxCell id="yCoRCrYcr9WR2kOmPFQ8-131" value="" style="rounded=0;whiteSpace=wrap;html=1;fillColor=#008a00;strokeColor=#005700;fontColor=#ffffff;" vertex="1" parent="1">
          <mxGeometry x="70" y="1840" width="340" height="60" as="geometry" />
        </mxCell>
        <mxCell id="yCoRCrYcr9WR2kOmPFQ8-132" value="" style="rounded=0;whiteSpace=wrap;html=1;fillColor=#f8cecc;strokeColor=#b85450;" vertex="1" parent="1">
          <mxGeometry x="70" y="1900" width="340" height="60" as="geometry" />
        </mxCell>
        <mxCell id="yCoRCrYcr9WR2kOmPFQ8-133" value="" style="rounded=0;whiteSpace=wrap;html=1;" vertex="1" parent="1">
          <mxGeometry x="470" y="1660" width="310" height="290" as="geometry" />
        </mxCell>
        <mxCell id="yCoRCrYcr9WR2kOmPFQ8-134" value="Titlu tema" style="text;html=1;strokeColor=none;fillColor=none;align=center;verticalAlign=middle;whiteSpace=wrap;rounded=0;" vertex="1" parent="1">
          <mxGeometry x="80" y="1675" width="60" height="30" as="geometry" />
        </mxCell>
        <mxCell id="yCoRCrYcr9WR2kOmPFQ8-135" value="Termen limita:&lt;br&gt;26.05.2023" style="text;html=1;strokeColor=none;fillColor=none;align=center;verticalAlign=middle;whiteSpace=wrap;rounded=0;" vertex="1" parent="1">
          <mxGeometry x="310" y="1670" width="90" height="10" as="geometry" />
        </mxCell>
        <mxCell id="yCoRCrYcr9WR2kOmPFQ8-136" value="Timp ramas:&lt;br&gt;1h 23min 30sec" style="text;html=1;strokeColor=none;fillColor=none;align=center;verticalAlign=middle;whiteSpace=wrap;rounded=0;" vertex="1" parent="1">
          <mxGeometry x="310" y="1695" width="90" height="10" as="geometry" />
        </mxCell>
        <mxCell id="yCoRCrYcr9WR2kOmPFQ8-137" value="Pending" style="text;html=1;strokeColor=none;fillColor=none;align=center;verticalAlign=middle;whiteSpace=wrap;rounded=0;" vertex="1" parent="1">
          <mxGeometry x="200" y="1675" width="60" height="30" as="geometry" />
        </mxCell>
        <mxCell id="yCoRCrYcr9WR2kOmPFQ8-138" value="Expired" style="text;html=1;strokeColor=none;fillColor=none;align=center;verticalAlign=middle;whiteSpace=wrap;rounded=0;" vertex="1" parent="1">
          <mxGeometry x="200" y="1920" width="60" height="25" as="geometry" />
        </mxCell>
        <mxCell id="yCoRCrYcr9WR2kOmPFQ8-139" value="Sent" style="text;html=1;strokeColor=none;fillColor=none;align=center;verticalAlign=middle;whiteSpace=wrap;rounded=0;" vertex="1" parent="1">
          <mxGeometry x="200" y="1735" width="60" height="30" as="geometry" />
        </mxCell>
        <mxCell id="yCoRCrYcr9WR2kOmPFQ8-140" value="Sent" style="text;html=1;strokeColor=none;fillColor=none;align=center;verticalAlign=middle;whiteSpace=wrap;rounded=0;" vertex="1" parent="1">
          <mxGeometry x="200" y="1795" width="60" height="30" as="geometry" />
        </mxCell>
        <mxCell id="yCoRCrYcr9WR2kOmPFQ8-141" value="Verified" style="text;html=1;strokeColor=none;fillColor=none;align=center;verticalAlign=middle;whiteSpace=wrap;rounded=0;" vertex="1" parent="1">
          <mxGeometry x="200" y="1855" width="60" height="30" as="geometry" />
        </mxCell>
        <mxCell id="yCoRCrYcr9WR2kOmPFQ8-142" value="Titlu tema" style="text;html=1;strokeColor=none;fillColor=none;align=center;verticalAlign=middle;whiteSpace=wrap;rounded=0;" vertex="1" parent="1">
          <mxGeometry x="80" y="1735" width="60" height="30" as="geometry" />
        </mxCell>
        <mxCell id="yCoRCrYcr9WR2kOmPFQ8-143" value="Titlu tema" style="text;html=1;strokeColor=none;fillColor=none;align=center;verticalAlign=middle;whiteSpace=wrap;rounded=0;" vertex="1" parent="1">
          <mxGeometry x="80" y="1790" width="60" height="30" as="geometry" />
        </mxCell>
        <mxCell id="yCoRCrYcr9WR2kOmPFQ8-144" value="Titlu tema" style="text;html=1;strokeColor=none;fillColor=none;align=center;verticalAlign=middle;whiteSpace=wrap;rounded=0;" vertex="1" parent="1">
          <mxGeometry x="80" y="1850" width="60" height="30" as="geometry" />
        </mxCell>
        <mxCell id="yCoRCrYcr9WR2kOmPFQ8-145" value="Waiting for mark..." style="text;html=1;strokeColor=none;fillColor=none;align=center;verticalAlign=middle;whiteSpace=wrap;rounded=0;" vertex="1" parent="1">
          <mxGeometry x="300" y="1735" width="102.5" height="30" as="geometry" />
        </mxCell>
        <mxCell id="yCoRCrYcr9WR2kOmPFQ8-146" value="9/10" style="text;html=1;strokeColor=none;fillColor=none;align=center;verticalAlign=middle;whiteSpace=wrap;rounded=0;" vertex="1" parent="1">
          <mxGeometry x="305" y="1855" width="95" height="30" as="geometry" />
        </mxCell>
        <mxCell id="yCoRCrYcr9WR2kOmPFQ8-147" value="Was due:12.05.2023" style="text;html=1;strokeColor=none;fillColor=none;align=center;verticalAlign=middle;whiteSpace=wrap;rounded=0;" vertex="1" parent="1">
          <mxGeometry x="282.5" y="1900" width="132.5" height="30" as="geometry" />
        </mxCell>
        <mxCell id="yCoRCrYcr9WR2kOmPFQ8-148" value="Titlu tema" style="text;html=1;strokeColor=none;fillColor=none;align=center;verticalAlign=middle;whiteSpace=wrap;rounded=0;" vertex="1" parent="1">
          <mxGeometry x="80" y="1915" width="60" height="30" as="geometry" />
        </mxCell>
        <mxCell id="yCoRCrYcr9WR2kOmPFQ8-149" value="Waiting for mark..." style="text;html=1;strokeColor=none;fillColor=none;align=center;verticalAlign=middle;whiteSpace=wrap;rounded=0;" vertex="1" parent="1">
          <mxGeometry x="297.5" y="1790" width="102.5" height="30" as="geometry" />
        </mxCell>
        <mxCell id="yCoRCrYcr9WR2kOmPFQ8-150" value="0/10" style="text;html=1;strokeColor=none;fillColor=none;align=center;verticalAlign=middle;whiteSpace=wrap;rounded=0;" vertex="1" parent="1">
          <mxGeometry x="310" y="1930" width="95" height="30" as="geometry" />
        </mxCell>
        <mxCell id="yCoRCrYcr9WR2kOmPFQ8-155" value="Oopsie, not homework sent in due time" style="text;html=1;strokeColor=none;fillColor=none;align=center;verticalAlign=middle;whiteSpace=wrap;rounded=0;" vertex="1" parent="1">
          <mxGeometry x="520" y="1870" width="225" height="30" as="geometry" />
        </mxCell>
        <mxCell id="yCoRCrYcr9WR2kOmPFQ8-156" value="0/10" style="text;html=1;strokeColor=none;fillColor=none;align=center;verticalAlign=middle;whiteSpace=wrap;rounded=0;" vertex="1" parent="1">
          <mxGeometry x="595" y="1750" width="60" height="30" as="geometry" />
        </mxCell>
        <mxCell id="yCoRCrYcr9WR2kOmPFQ8-158" value="" style="rounded=0;whiteSpace=wrap;html=1;" vertex="1" parent="1">
          <mxGeometry x="1230" y="80" width="750" height="410" as="geometry" />
        </mxCell>
        <mxCell id="yCoRCrYcr9WR2kOmPFQ8-159" value="Logout" style="rounded=0;whiteSpace=wrap;html=1;" vertex="1" parent="1">
          <mxGeometry x="1910" y="90" width="60" height="20" as="geometry" />
        </mxCell>
        <mxCell id="yCoRCrYcr9WR2kOmPFQ8-160" value="profesor" style="text;html=1;strokeColor=none;fillColor=none;align=center;verticalAlign=middle;whiteSpace=wrap;rounded=0;" vertex="1" parent="1">
          <mxGeometry x="1830" y="85" width="60" height="30" as="geometry" />
        </mxCell>
        <mxCell id="yCoRCrYcr9WR2kOmPFQ8-161" value="" style="rounded=0;whiteSpace=wrap;html=1;" vertex="1" parent="1">
          <mxGeometry x="2310" y="80" width="750" height="410" as="geometry" />
        </mxCell>
        <mxCell id="yCoRCrYcr9WR2kOmPFQ8-162" value="Logout" style="rounded=0;whiteSpace=wrap;html=1;" vertex="1" parent="1">
          <mxGeometry x="2990" y="90" width="60" height="20" as="geometry" />
        </mxCell>
        <mxCell id="yCoRCrYcr9WR2kOmPFQ8-163" value="admin" style="text;html=1;strokeColor=none;fillColor=none;align=center;verticalAlign=middle;whiteSpace=wrap;rounded=0;" vertex="1" parent="1">
          <mxGeometry x="2910" y="85" width="60" height="30" as="geometry" />
        </mxCell>
        <mxCell id="yCoRCrYcr9WR2kOmPFQ8-174" style="edgeStyle=orthogonalEdgeStyle;rounded=0;orthogonalLoop=1;jettySize=auto;html=1;" edge="1" parent="1" source="yCoRCrYcr9WR2kOmPFQ8-164" target="yCoRCrYcr9WR2kOmPFQ8-175">
          <mxGeometry relative="1" as="geometry">
            <mxPoint x="2510" y="630" as="targetPoint" />
          </mxGeometry>
        </mxCell>
        <mxCell id="yCoRCrYcr9WR2kOmPFQ8-164" value="Creeaza cont" style="rounded=0;whiteSpace=wrap;html=1;" vertex="1" parent="1">
          <mxGeometry x="2351" y="257.5" width="130" height="55" as="geometry" />
        </mxCell>
        <mxCell id="yCoRCrYcr9WR2kOmPFQ8-173" style="edgeStyle=orthogonalEdgeStyle;rounded=0;orthogonalLoop=1;jettySize=auto;html=1;entryX=0.5;entryY=0;entryDx=0;entryDy=0;" edge="1" parent="1" source="yCoRCrYcr9WR2kOmPFQ8-165" target="yCoRCrYcr9WR2kOmPFQ8-172">
          <mxGeometry relative="1" as="geometry" />
        </mxCell>
        <mxCell id="yCoRCrYcr9WR2kOmPFQ8-165" value="Sterge cont" style="rounded=0;whiteSpace=wrap;html=1;" vertex="1" parent="1">
          <mxGeometry x="2890" y="257.5" width="130" height="55" as="geometry" />
        </mxCell>
        <mxCell id="yCoRCrYcr9WR2kOmPFQ8-170" style="edgeStyle=orthogonalEdgeStyle;rounded=0;orthogonalLoop=1;jettySize=auto;html=1;" edge="1" parent="1" source="yCoRCrYcr9WR2kOmPFQ8-166" target="yCoRCrYcr9WR2kOmPFQ8-171">
          <mxGeometry relative="1" as="geometry">
            <mxPoint x="2780" y="640" as="targetPoint" />
          </mxGeometry>
        </mxCell>
        <mxCell id="yCoRCrYcr9WR2kOmPFQ8-166" value="Modifica cont" style="rounded=0;whiteSpace=wrap;html=1;" vertex="1" parent="1">
          <mxGeometry x="2620" y="255" width="130" height="55" as="geometry" />
        </mxCell>
        <mxCell id="yCoRCrYcr9WR2kOmPFQ8-171" value="Fereastra modificare date&amp;nbsp;" style="rounded=0;whiteSpace=wrap;html=1;" vertex="1" parent="1">
          <mxGeometry x="2720" y="610" width="120" height="60" as="geometry" />
        </mxCell>
        <mxCell id="yCoRCrYcr9WR2kOmPFQ8-172" value="Fereastra stergere conturi" style="rounded=0;whiteSpace=wrap;html=1;" vertex="1" parent="1">
          <mxGeometry x="2960" y="615" width="120" height="60" as="geometry" />
        </mxCell>
        <mxCell id="yCoRCrYcr9WR2kOmPFQ8-175" value="Fereastra creeare conturi" style="rounded=0;whiteSpace=wrap;html=1;" vertex="1" parent="1">
          <mxGeometry x="2450" y="600" width="120" height="60" as="geometry" />
        </mxCell>
        <mxCell id="yCoRCrYcr9WR2kOmPFQ8-184" style="edgeStyle=orthogonalEdgeStyle;rounded=0;orthogonalLoop=1;jettySize=auto;html=1;" edge="1" parent="1" source="yCoRCrYcr9WR2kOmPFQ8-182" target="yCoRCrYcr9WR2kOmPFQ8-185">
          <mxGeometry relative="1" as="geometry">
            <mxPoint x="1320" y="650" as="targetPoint" />
          </mxGeometry>
        </mxCell>
        <mxCell id="yCoRCrYcr9WR2kOmPFQ8-182" value="Creeaza tema" style="rounded=0;whiteSpace=wrap;html=1;" vertex="1" parent="1">
          <mxGeometry x="1360" y="275" width="120" height="60" as="geometry" />
        </mxCell>
        <mxCell id="yCoRCrYcr9WR2kOmPFQ8-206" style="edgeStyle=orthogonalEdgeStyle;rounded=0;orthogonalLoop=1;jettySize=auto;html=1;" edge="1" parent="1" source="yCoRCrYcr9WR2kOmPFQ8-183" target="yCoRCrYcr9WR2kOmPFQ8-207">
          <mxGeometry relative="1" as="geometry">
            <mxPoint x="1800" y="-180" as="targetPoint" />
          </mxGeometry>
        </mxCell>
        <mxCell id="yCoRCrYcr9WR2kOmPFQ8-183" value="Vizualizeaza teme create" style="rounded=0;whiteSpace=wrap;html=1;" vertex="1" parent="1">
          <mxGeometry x="1720" y="275" width="150" height="60" as="geometry" />
        </mxCell>
        <mxCell id="yCoRCrYcr9WR2kOmPFQ8-185" value="" style="rounded=0;whiteSpace=wrap;html=1;" vertex="1" parent="1">
          <mxGeometry x="1010" y="640" width="650" height="360" as="geometry" />
        </mxCell>
        <mxCell id="yCoRCrYcr9WR2kOmPFQ8-186" value="Titlu" style="text;html=1;strokeColor=none;fillColor=none;align=center;verticalAlign=middle;whiteSpace=wrap;rounded=0;" vertex="1" parent="1">
          <mxGeometry x="1070" y="730" width="60" height="30" as="geometry" />
        </mxCell>
        <mxCell id="yCoRCrYcr9WR2kOmPFQ8-187" value="Descriere" style="text;html=1;strokeColor=none;fillColor=none;align=center;verticalAlign=middle;whiteSpace=wrap;rounded=0;" vertex="1" parent="1">
          <mxGeometry x="1080" y="780" width="60" height="30" as="geometry" />
        </mxCell>
        <mxCell id="yCoRCrYcr9WR2kOmPFQ8-201" style="edgeStyle=orthogonalEdgeStyle;rounded=0;orthogonalLoop=1;jettySize=auto;html=1;entryX=0.5;entryY=0;entryDx=0;entryDy=0;fillColor=#ffcd28;gradientColor=#ffa500;strokeColor=#d79b00;" edge="1" parent="1" source="yCoRCrYcr9WR2kOmPFQ8-188" target="yCoRCrYcr9WR2kOmPFQ8-196">
          <mxGeometry relative="1" as="geometry" />
        </mxCell>
        <mxCell id="yCoRCrYcr9WR2kOmPFQ8-188" value="Extensii acceptate" style="swimlane;whiteSpace=wrap;html=1;" vertex="1" parent="1">
          <mxGeometry x="1410" y="735" width="110" height="60" as="geometry" />
        </mxCell>
        <mxCell id="yCoRCrYcr9WR2kOmPFQ8-189" value="Termen limita" style="text;html=1;strokeColor=none;fillColor=none;align=center;verticalAlign=middle;whiteSpace=wrap;rounded=0;" vertex="1" parent="1">
          <mxGeometry x="1080" y="930" width="60" height="30" as="geometry" />
        </mxCell>
        <mxCell id="yCoRCrYcr9WR2kOmPFQ8-190" value="Grupa" style="text;html=1;strokeColor=none;fillColor=none;align=center;verticalAlign=middle;whiteSpace=wrap;rounded=0;" vertex="1" parent="1">
          <mxGeometry x="1080" y="855" width="60" height="30" as="geometry" />
        </mxCell>
        <mxCell id="yCoRCrYcr9WR2kOmPFQ8-202" style="edgeStyle=orthogonalEdgeStyle;rounded=0;orthogonalLoop=1;jettySize=auto;html=1;entryX=0.5;entryY=0;entryDx=0;entryDy=0;fillColor=#ffcd28;gradientColor=#ffa500;strokeColor=#d79b00;" edge="1" parent="1" source="yCoRCrYcr9WR2kOmPFQ8-191" target="yCoRCrYcr9WR2kOmPFQ8-196">
          <mxGeometry relative="1" as="geometry" />
        </mxCell>
        <mxCell id="yCoRCrYcr9WR2kOmPFQ8-191" value="" style="rounded=1;whiteSpace=wrap;html=1;" vertex="1" parent="1">
          <mxGeometry x="1200" y="735" width="90" height="20" as="geometry" />
        </mxCell>
        <mxCell id="yCoRCrYcr9WR2kOmPFQ8-203" style="edgeStyle=orthogonalEdgeStyle;rounded=0;orthogonalLoop=1;jettySize=auto;html=1;fillColor=#ffcd28;gradientColor=#ffa500;strokeColor=#d79b00;" edge="1" parent="1" source="yCoRCrYcr9WR2kOmPFQ8-192">
          <mxGeometry relative="1" as="geometry">
            <mxPoint x="1510" y="960" as="targetPoint" />
          </mxGeometry>
        </mxCell>
        <mxCell id="yCoRCrYcr9WR2kOmPFQ8-192" value="" style="rounded=1;whiteSpace=wrap;html=1;" vertex="1" parent="1">
          <mxGeometry x="1200" y="785" width="90" height="20" as="geometry" />
        </mxCell>
        <mxCell id="yCoRCrYcr9WR2kOmPFQ8-204" style="edgeStyle=orthogonalEdgeStyle;rounded=0;orthogonalLoop=1;jettySize=auto;html=1;fillColor=#ffcd28;gradientColor=#ffa500;strokeColor=#d79b00;" edge="1" parent="1" source="yCoRCrYcr9WR2kOmPFQ8-193" target="yCoRCrYcr9WR2kOmPFQ8-196">
          <mxGeometry relative="1" as="geometry" />
        </mxCell>
        <mxCell id="yCoRCrYcr9WR2kOmPFQ8-193" value="" style="rounded=1;whiteSpace=wrap;html=1;" vertex="1" parent="1">
          <mxGeometry x="1200" y="860" width="90" height="20" as="geometry" />
        </mxCell>
        <mxCell id="yCoRCrYcr9WR2kOmPFQ8-205" style="edgeStyle=orthogonalEdgeStyle;rounded=0;orthogonalLoop=1;jettySize=auto;html=1;" edge="1" parent="1" source="yCoRCrYcr9WR2kOmPFQ8-194">
          <mxGeometry relative="1" as="geometry">
            <mxPoint x="1510" y="950" as="targetPoint" />
          </mxGeometry>
        </mxCell>
        <mxCell id="yCoRCrYcr9WR2kOmPFQ8-194" value="" style="rounded=1;whiteSpace=wrap;html=1;" vertex="1" parent="1">
          <mxGeometry x="1200" y="935" width="90" height="20" as="geometry" />
        </mxCell>
        <mxCell id="yCoRCrYcr9WR2kOmPFQ8-198" style="edgeStyle=orthogonalEdgeStyle;rounded=0;orthogonalLoop=1;jettySize=auto;html=1;entryX=0;entryY=0.25;entryDx=0;entryDy=0;" edge="1" parent="1" source="yCoRCrYcr9WR2kOmPFQ8-196" target="yCoRCrYcr9WR2kOmPFQ8-158">
          <mxGeometry relative="1" as="geometry">
            <Array as="points">
              <mxPoint x="1580" y="964" />
              <mxPoint x="1580" y="590" />
              <mxPoint x="1210" y="590" />
              <mxPoint x="1210" y="183" />
            </Array>
          </mxGeometry>
        </mxCell>
        <mxCell id="yCoRCrYcr9WR2kOmPFQ8-196" value="Creeaza tema" style="rounded=0;whiteSpace=wrap;html=1;fillColor=#ffcd28;gradientColor=#ffa500;strokeColor=#d79b00;" vertex="1" parent="1">
          <mxGeometry x="1460" y="955" width="110" height="17.5" as="geometry" />
        </mxCell>
        <mxCell id="yCoRCrYcr9WR2kOmPFQ8-200" style="edgeStyle=orthogonalEdgeStyle;rounded=0;orthogonalLoop=1;jettySize=auto;html=1;" edge="1" parent="1" source="yCoRCrYcr9WR2kOmPFQ8-199">
          <mxGeometry relative="1" as="geometry">
            <mxPoint x="1580" y="780" as="targetPoint" />
            <Array as="points">
              <mxPoint x="1385" y="1026" />
              <mxPoint x="1640" y="1026" />
              <mxPoint x="1640" y="820" />
              <mxPoint x="1580" y="820" />
            </Array>
          </mxGeometry>
        </mxCell>
        <mxCell id="yCoRCrYcr9WR2kOmPFQ8-199" value="Anuleaza" style="rounded=0;whiteSpace=wrap;html=1;" vertex="1" parent="1">
          <mxGeometry x="1330" y="955" width="110" height="17.5" as="geometry" />
        </mxCell>
        <mxCell id="yCoRCrYcr9WR2kOmPFQ8-207" value="" style="rounded=0;whiteSpace=wrap;html=1;" vertex="1" parent="1">
          <mxGeometry x="1500" y="-500" width="680" height="350" as="geometry" />
        </mxCell>
        <mxCell id="yCoRCrYcr9WR2kOmPFQ8-209" value="" style="rounded=0;whiteSpace=wrap;html=1;fillColor=#eeeeee;strokeColor=#36393d;" vertex="1" parent="1">
          <mxGeometry x="1530" y="-400" width="340" height="60" as="geometry" />
        </mxCell>
        <mxCell id="yCoRCrYcr9WR2kOmPFQ8-210" value="" style="rounded=0;whiteSpace=wrap;html=1;fillColor=#cdeb8b;strokeColor=#36393d;" vertex="1" parent="1">
          <mxGeometry x="1530" y="-340" width="340" height="60" as="geometry" />
        </mxCell>
        <mxCell id="yCoRCrYcr9WR2kOmPFQ8-211" value="" style="rounded=0;whiteSpace=wrap;html=1;fillColor=#fff2cc;gradientColor=#ffd966;strokeColor=#d6b656;" vertex="1" parent="1">
          <mxGeometry x="1530" y="-280" width="340" height="60" as="geometry" />
        </mxCell>
        <mxCell id="yCoRCrYcr9WR2kOmPFQ8-212" value="" style="rounded=0;whiteSpace=wrap;html=1;fillColor=#fff2cc;gradientColor=#ffd966;strokeColor=#d6b656;" vertex="1" parent="1">
          <mxGeometry x="1530" y="-220" width="340" height="60" as="geometry" />
        </mxCell>
        <mxCell id="yCoRCrYcr9WR2kOmPFQ8-213" value="" style="rounded=0;whiteSpace=wrap;html=1;" vertex="1" parent="1">
          <mxGeometry x="1930" y="-400" width="230" height="240" as="geometry" />
        </mxCell>
        <mxCell id="yCoRCrYcr9WR2kOmPFQ8-214" value="Student" style="text;html=1;strokeColor=none;fillColor=none;align=center;verticalAlign=middle;whiteSpace=wrap;rounded=0;" vertex="1" parent="1">
          <mxGeometry x="1940" y="-390" width="60" height="30" as="geometry" />
        </mxCell>
        <mxCell id="yCoRCrYcr9WR2kOmPFQ8-215" value="Trimis" style="text;html=1;strokeColor=none;fillColor=none;align=center;verticalAlign=middle;whiteSpace=wrap;rounded=0;" vertex="1" parent="1">
          <mxGeometry x="2080" y="-385" width="60" height="30" as="geometry" />
        </mxCell>
        <mxCell id="yCoRCrYcr9WR2kOmPFQ8-216" value="Nume" style="text;html=1;strokeColor=none;fillColor=none;align=center;verticalAlign=middle;whiteSpace=wrap;rounded=0;" vertex="1" parent="1">
          <mxGeometry x="1940" y="-325" width="60" height="30" as="geometry" />
        </mxCell>
        <mxCell id="yCoRCrYcr9WR2kOmPFQ8-217" value="Da" style="text;html=1;strokeColor=none;fillColor=none;align=center;verticalAlign=middle;whiteSpace=wrap;rounded=0;" vertex="1" parent="1">
          <mxGeometry x="2080" y="-325" width="60" height="30" as="geometry" />
        </mxCell>
        <mxCell id="yCoRCrYcr9WR2kOmPFQ8-218" value="Nume" style="text;html=1;strokeColor=none;fillColor=none;align=center;verticalAlign=middle;whiteSpace=wrap;rounded=0;" vertex="1" parent="1">
          <mxGeometry x="1940" y="-295" width="60" height="30" as="geometry" />
        </mxCell>
        <mxCell id="yCoRCrYcr9WR2kOmPFQ8-220" value="Da" style="text;html=1;strokeColor=none;fillColor=none;align=center;verticalAlign=middle;whiteSpace=wrap;rounded=0;" vertex="1" parent="1">
          <mxGeometry x="2080" y="-295" width="60" height="30" as="geometry" />
        </mxCell>
        <mxCell id="yCoRCrYcr9WR2kOmPFQ8-222" value="Nume" style="text;html=1;strokeColor=none;fillColor=none;align=center;verticalAlign=middle;whiteSpace=wrap;rounded=0;" vertex="1" parent="1">
          <mxGeometry x="1940" y="-260" width="60" height="30" as="geometry" />
        </mxCell>
        <mxCell id="yCoRCrYcr9WR2kOmPFQ8-223" value="Nu" style="text;html=1;strokeColor=none;fillColor=none;align=center;verticalAlign=middle;whiteSpace=wrap;rounded=0;" vertex="1" parent="1">
          <mxGeometry x="2080" y="-260" width="60" height="30" as="geometry" />
        </mxCell>
        <mxCell id="yCoRCrYcr9WR2kOmPFQ8-224" value="Termen limita:&lt;br&gt;26.05.2023" style="text;html=1;strokeColor=none;fillColor=none;align=center;verticalAlign=middle;whiteSpace=wrap;rounded=0;" vertex="1" parent="1">
          <mxGeometry x="1780" y="-390" width="90" height="10" as="geometry" />
        </mxCell>
        <mxCell id="yCoRCrYcr9WR2kOmPFQ8-225" value="Timp ramas:&lt;br&gt;1h 23min 30sec" style="text;html=1;strokeColor=none;fillColor=none;align=center;verticalAlign=middle;whiteSpace=wrap;rounded=0;" vertex="1" parent="1">
          <mxGeometry x="1780" y="-360" width="90" height="10" as="geometry" />
        </mxCell>
        <mxCell id="yCoRCrYcr9WR2kOmPFQ8-226" value="Titlu tema" style="text;html=1;strokeColor=none;fillColor=none;align=center;verticalAlign=middle;whiteSpace=wrap;rounded=0;" vertex="1" parent="1">
          <mxGeometry x="1540" y="-385" width="60" height="30" as="geometry" />
        </mxCell>
        <mxCell id="yCoRCrYcr9WR2kOmPFQ8-227" value="Titlu tema" style="text;html=1;strokeColor=none;fillColor=none;align=center;verticalAlign=middle;whiteSpace=wrap;rounded=0;" vertex="1" parent="1">
          <mxGeometry x="1540" y="-325" width="60" height="30" as="geometry" />
        </mxCell>
        <mxCell id="yCoRCrYcr9WR2kOmPFQ8-228" value="Titlu tema" style="text;html=1;strokeColor=none;fillColor=none;align=center;verticalAlign=middle;whiteSpace=wrap;rounded=0;" vertex="1" parent="1">
          <mxGeometry x="1540" y="-265" width="60" height="30" as="geometry" />
        </mxCell>
        <mxCell id="yCoRCrYcr9WR2kOmPFQ8-229" value="Titlu tema" style="text;html=1;strokeColor=none;fillColor=none;align=center;verticalAlign=middle;whiteSpace=wrap;rounded=0;" vertex="1" parent="1">
          <mxGeometry x="1540" y="-205" width="60" height="30" as="geometry" />
        </mxCell>
        <mxCell id="yCoRCrYcr9WR2kOmPFQ8-231" value="Gata" style="text;html=1;strokeColor=none;fillColor=none;align=center;verticalAlign=middle;whiteSpace=wrap;rounded=0;" vertex="1" parent="1">
          <mxGeometry x="1795" y="-265" width="60" height="30" as="geometry" />
        </mxCell>
        <mxCell id="yCoRCrYcr9WR2kOmPFQ8-232" value="Gata" style="text;html=1;strokeColor=none;fillColor=none;align=center;verticalAlign=middle;whiteSpace=wrap;rounded=0;" vertex="1" parent="1">
          <mxGeometry x="1795" y="-205" width="60" height="30" as="geometry" />
        </mxCell>
        <mxCell id="yCoRCrYcr9WR2kOmPFQ8-233" value="" style="rounded=0;whiteSpace=wrap;html=1;" vertex="1" parent="1">
          <mxGeometry x="1510" y="-934" width="680" height="350" as="geometry" />
        </mxCell>
        <mxCell id="yCoRCrYcr9WR2kOmPFQ8-234" value="" style="rounded=0;whiteSpace=wrap;html=1;fillColor=#cdeb8b;strokeColor=#36393d;" vertex="1" parent="1">
          <mxGeometry x="1540" y="-834" width="340" height="60" as="geometry" />
        </mxCell>
        <mxCell id="yCoRCrYcr9WR2kOmPFQ8-235" value="" style="rounded=0;whiteSpace=wrap;html=1;fillColor=#cdeb8b;strokeColor=#36393d;" vertex="1" parent="1">
          <mxGeometry x="1540" y="-774" width="340" height="60" as="geometry" />
        </mxCell>
        <mxCell id="yCoRCrYcr9WR2kOmPFQ8-236" value="" style="rounded=0;whiteSpace=wrap;html=1;fillColor=#f5f5f5;strokeColor=#666666;fontStyle=0;fontColor=#333333;" vertex="1" parent="1">
          <mxGeometry x="1540" y="-714" width="340" height="60" as="geometry" />
        </mxCell>
        <mxCell id="yCoRCrYcr9WR2kOmPFQ8-237" value="" style="rounded=0;whiteSpace=wrap;html=1;fillColor=#fff2cc;gradientColor=#ffd966;strokeColor=#d6b656;" vertex="1" parent="1">
          <mxGeometry x="1540" y="-654" width="340" height="60" as="geometry" />
        </mxCell>
        <mxCell id="yCoRCrYcr9WR2kOmPFQ8-238" value="" style="rounded=0;whiteSpace=wrap;html=1;" vertex="1" parent="1">
          <mxGeometry x="1940" y="-834" width="230" height="240" as="geometry" />
        </mxCell>
        <mxCell id="yCoRCrYcr9WR2kOmPFQ8-239" value="Student" style="text;html=1;strokeColor=none;fillColor=none;align=center;verticalAlign=middle;whiteSpace=wrap;rounded=0;" vertex="1" parent="1">
          <mxGeometry x="1950" y="-824" width="60" height="30" as="geometry" />
        </mxCell>
        <mxCell id="yCoRCrYcr9WR2kOmPFQ8-241" value="Nume" style="text;html=1;strokeColor=none;fillColor=none;align=center;verticalAlign=middle;whiteSpace=wrap;rounded=0;" vertex="1" parent="1">
          <mxGeometry x="1950" y="-759" width="60" height="30" as="geometry" />
        </mxCell>
        <mxCell id="yCoRCrYcr9WR2kOmPFQ8-243" value="Nume" style="text;html=1;strokeColor=none;fillColor=none;align=center;verticalAlign=middle;whiteSpace=wrap;rounded=0;" vertex="1" parent="1">
          <mxGeometry x="1950" y="-729" width="60" height="30" as="geometry" />
        </mxCell>
        <mxCell id="yCoRCrYcr9WR2kOmPFQ8-245" value="Nume" style="text;html=1;strokeColor=none;fillColor=none;align=center;verticalAlign=middle;whiteSpace=wrap;rounded=0;" vertex="1" parent="1">
          <mxGeometry x="1950" y="-694" width="60" height="30" as="geometry" />
        </mxCell>
        <mxCell id="yCoRCrYcr9WR2kOmPFQ8-247" value="Termen limita:&lt;br&gt;26.05.2023" style="text;html=1;strokeColor=none;fillColor=none;align=center;verticalAlign=middle;whiteSpace=wrap;rounded=0;" vertex="1" parent="1">
          <mxGeometry x="1790" y="-824" width="90" height="10" as="geometry" />
        </mxCell>
        <mxCell id="yCoRCrYcr9WR2kOmPFQ8-248" value="Timp ramas:&lt;br&gt;1h 23min 30sec" style="text;html=1;strokeColor=none;fillColor=none;align=center;verticalAlign=middle;whiteSpace=wrap;rounded=0;" vertex="1" parent="1">
          <mxGeometry x="1790" y="-794" width="90" height="10" as="geometry" />
        </mxCell>
        <mxCell id="yCoRCrYcr9WR2kOmPFQ8-249" value="Titlu tema" style="text;html=1;strokeColor=none;fillColor=none;align=center;verticalAlign=middle;whiteSpace=wrap;rounded=0;" vertex="1" parent="1">
          <mxGeometry x="1550" y="-819" width="60" height="30" as="geometry" />
        </mxCell>
        <mxCell id="yCoRCrYcr9WR2kOmPFQ8-250" value="Titlu tema" style="text;html=1;strokeColor=none;fillColor=none;align=center;verticalAlign=middle;whiteSpace=wrap;rounded=0;" vertex="1" parent="1">
          <mxGeometry x="1550" y="-759" width="60" height="30" as="geometry" />
        </mxCell>
        <mxCell id="yCoRCrYcr9WR2kOmPFQ8-251" value="Titlu tema" style="text;html=1;strokeColor=none;fillColor=none;align=center;verticalAlign=middle;whiteSpace=wrap;rounded=0;" vertex="1" parent="1">
          <mxGeometry x="1550" y="-699" width="60" height="30" as="geometry" />
        </mxCell>
        <mxCell id="yCoRCrYcr9WR2kOmPFQ8-252" value="Titlu tema" style="text;html=1;strokeColor=none;fillColor=none;align=center;verticalAlign=middle;whiteSpace=wrap;rounded=0;" vertex="1" parent="1">
          <mxGeometry x="1550" y="-639" width="60" height="30" as="geometry" />
        </mxCell>
        <mxCell id="yCoRCrYcr9WR2kOmPFQ8-253" value="Gata" style="text;html=1;strokeColor=none;fillColor=none;align=center;verticalAlign=middle;whiteSpace=wrap;rounded=0;" vertex="1" parent="1">
          <mxGeometry x="1805" y="-699" width="60" height="30" as="geometry" />
        </mxCell>
        <mxCell id="yCoRCrYcr9WR2kOmPFQ8-254" value="Gata" style="text;html=1;strokeColor=none;fillColor=none;align=center;verticalAlign=middle;whiteSpace=wrap;rounded=0;" vertex="1" parent="1">
          <mxGeometry x="1805" y="-639" width="60" height="30" as="geometry" />
        </mxCell>
        <mxCell id="yCoRCrYcr9WR2kOmPFQ8-255" value="Descarca" style="rounded=0;whiteSpace=wrap;html=1;" vertex="1" parent="1">
          <mxGeometry x="2085" y="-751" width="70" height="14" as="geometry" />
        </mxCell>
        <mxCell id="yCoRCrYcr9WR2kOmPFQ8-256" value="Descarca" style="rounded=0;whiteSpace=wrap;html=1;" vertex="1" parent="1">
          <mxGeometry x="2085" y="-721" width="70" height="14" as="geometry" />
        </mxCell>
        <mxCell id="yCoRCrYcr9WR2kOmPFQ8-257" value="Descarca" style="rounded=0;whiteSpace=wrap;html=1;" vertex="1" parent="1">
          <mxGeometry x="2085" y="-686" width="70" height="14" as="geometry" />
        </mxCell>
      </root>
    </mxGraphModel>
  </diagram>
</mxfile>
